<?xml version='1.0' encoding='UTF-8'?>
<svg width="33mm" height="33mm" version="1.1" viewBox="0 0 33 33" xmlns="http://www.w3.org/2000/svg"><path d="M2,2H3V3H2zM3,2H4V3H3zM4,2H5V3H4zM5,2H6V3H5zM6,2H7V3H6zM7,2H8V3H7zM8,2H9V3H8zM11,2H12V3H11zM12,2H13V3H12zM13,2H14V3H13zM14,2H15V3H14zM15,2H16V3H15zM16,2H17V3H16zM17,2H18V3H17zM19,2H20V3H19zM20,2H21V3H20zM21,2H22V3H21zM24,2H25V3H24zM25,2H26V3H25zM26,2H27V3H26zM27,2H28V3H27zM28,2H29V3H28zM29,2H30V3H29zM30,2H31V3H30zM2,3H3V4H2zM8,3H9V4H8zM14,3H15V4H14zM16,3H17V4H16zM17,3H18V4H17zM20,3H21V4H20zM22,3H23V4H22zM24,3H25V4H24zM30,3H31V4H30zM2,4H3V5H2zM4,4H5V5H4zM5,4H6V5H5zM6,4H7V5H6zM8,4H9V5H8zM11,4H12V5H11zM14,4H15V5H14zM17,4H18V5H17zM18,4H19V5H18zM19,4H20V5H19zM20,4H21V5H20zM24,4H25V5H24zM26,4H27V5H26zM27,4H28V5H27zM28,4H29V5H28zM30,4H31V5H30zM2,5H3V6H2zM4,5H5V6H4zM5,5H6V6H5zM6,5H7V6H6zM8,5H9V6H8zM12,5H13V6H12zM13,5H14V6H13zM14,5H15V6H14zM16,5H17V6H16zM17,5H18V6H17zM20,5H21V6H20zM24,5H25V6H24zM26,5H27V6H26zM27,5H28V6H27zM28,5H29V6H28zM30,5H31V6H30zM2,6H3V7H2zM4,6H5V7H4zM5,6H6V7H5zM6,6H7V7H6zM8,6H9V7H8zM11,6H12V7H11zM14,6H15V7H14zM15,6H16V7H15zM16,6H17V7H16zM17,6H18V7H17zM18,6H19V7H18zM20,6H21V7H20zM24,6H25V7H24zM26,6H27V7H26zM27,6H28V7H27zM28,6H29V7H28zM30,6H31V7H30zM2,7H3V8H2zM8,7H9V8H8zM10,7H11V8H10zM12,7H13V8H12zM15,7H16V8H15zM16,7H17V8H16zM17,7H18V8H17zM19,7H20V8H19zM20,7H21V8H20zM21,7H22V8H21zM22,7H23V8H22zM24,7H25V8H24zM30,7H31V8H30zM2,8H3V9H2zM3,8H4V9H3zM4,8H5V9H4zM5,8H6V9H5zM6,8H7V9H6zM7,8H8V9H7zM8,8H9V9H8zM10,8H11V9H10zM12,8H13V9H12zM14,8H15V9H14zM16,8H17V9H16zM18,8H19V9H18zM20,8H21V9H20zM22,8H23V9H22zM24,8H25V9H24zM25,8H26V9H25zM26,8H27V9H26zM27,8H28V9H27zM28,8H29V9H28zM29,8H30V9H29zM30,8H31V9H30zM12,9H13V10H12zM14,9H15V10H14zM16,9H17V10H16zM18,9H19V10H18zM19,9H20V10H19zM21,9H22V10H21zM22,9H23V10H22zM2,10H3V11H2zM5,10H6V11H5zM7,10H8V11H7zM8,10H9V11H8zM10,10H11V11H10zM14,10H15V11H14zM15,10H16V11H15zM16,10H17V11H16zM21,10H22V11H21zM23,10H24V11H23zM25,10H26V11H25zM2,11H3V12H2zM4,11H5V12H4zM5,11H6V12H5zM6,11H7V12H6zM9,11H10V12H9zM14,11H15V12H14zM15,11H16V12H15zM16,11H17V12H16zM18,11H19V12H18zM24,11H25V12H24zM27,11H28V12H27zM30,11H31V12H30zM2,12H3V13H2zM3,12H4V13H3zM5,12H6V13H5zM7,12H8V13H7zM8,12H9V13H8zM10,12H11V13H10zM11,12H12V13H11zM16,12H17V13H16zM18,12H19V13H18zM19,12H20V13H19zM21,12H22V13H21zM22,12H23V13H22zM23,12H24V13H23zM25,12H26V13H25zM26,12H27V13H26zM27,12H28V13H27zM28,12H29V13H28zM29,12H30V13H29zM3,13H4V14H3zM4,13H5V14H4zM5,13H6V14H5zM6,13H7V14H6zM10,13H11V14H10zM11,13H12V14H11zM13,13H14V14H13zM15,13H16V14H15zM17,13H18V14H17zM18,13H19V14H18zM20,13H21V14H20zM23,13H24V14H23zM25,13H26V14H25zM28,13H29V14H28zM29,13H30V14H29zM4,14H5V15H4zM5,14H6V15H5zM6,14H7V15H6zM7,14H8V15H7zM8,14H9V15H8zM12,14H13V15H12zM14,14H15V15H14zM15,14H16V15H15zM18,14H19V15H18zM19,14H20V15H19zM20,14H21V15H20zM23,14H24V15H23zM24,14H25V15H24zM27,14H28V15H27zM29,14H30V15H29zM30,14H31V15H30zM3,15H4V16H3zM7,15H8V16H7zM9,15H10V16H9zM11,15H12V16H11zM12,15H13V16H12zM14,15H15V16H14zM16,15H17V16H16zM21,15H22V16H21zM22,15H23V16H22zM23,15H24V16H23zM2,16H3V17H2zM8,16H9V17H8zM12,16H13V17H12zM13,16H14V17H13zM15,16H16V17H15zM18,16H19V17H18zM22,16H23V17H22zM23,16H24V17H23zM24,16H25V17H24zM25,16H26V17H25zM27,16H28V17H27zM28,16H29V17H28zM29,16H30V17H29zM30,16H31V17H30zM4,17H5V18H4zM5,17H6V18H5zM9,17H10V18H9zM12,17H13V18H12zM14,17H15V18H14zM15,17H16V18H15zM16,17H17V18H16zM17,17H18V18H17zM18,17H19V18H18zM19,17H20V18H19zM20,17H21V18H20zM22,17H23V18H22zM25,17H26V18H25zM27,17H28V18H27zM29,17H30V18H29zM4,18H5V19H4zM5,18H6V19H5zM6,18H7V19H6zM8,18H9V19H8zM9,18H10V19H9zM11,18H12V19H11zM14,18H15V19H14zM15,18H16V19H15zM16,18H17V19H16zM18,18H19V19H18zM19,18H20V19H19zM22,18H23V19H22zM23,18H24V19H23zM25,18H26V19H25zM29,18H30V19H29zM7,19H8V20H7zM13,19H14V20H13zM16,19H17V20H16zM18,19H19V20H18zM23,19H24V20H23zM24,19H25V20H24zM25,19H26V20H25zM27,19H28V20H27zM30,19H31V20H30zM2,20H3V21H2zM5,20H6V21H5zM7,20H8V21H7zM8,20H9V21H8zM9,20H10V21H9zM10,20H11V21H10zM13,20H14V21H13zM15,20H16V21H15zM20,20H21V21H20zM23,20H24V21H23zM25,20H26V21H25zM26,20H27V21H26zM29,20H30V21H29zM30,20H31V21H30zM5,21H6V22H5zM6,21H7V22H6zM9,21H10V22H9zM11,21H12V22H11zM12,21H13V22H12zM13,21H14V22H13zM14,21H15V22H14zM15,21H16V22H15zM18,21H19V22H18zM19,21H20V22H19zM20,21H21V22H20zM21,21H22V22H21zM23,21H24V22H23zM29,21H30V22H29zM30,21H31V22H30zM2,22H3V23H2zM5,22H6V23H5zM6,22H7V23H6zM7,22H8V23H7zM8,22H9V23H8zM11,22H12V23H11zM12,22H13V23H12zM14,22H15V23H14zM16,22H17V23H16zM21,22H22V23H21zM22,22H23V23H22zM23,22H24V23H23zM24,22H25V23H24zM25,22H26V23H25zM26,22H27V23H26zM28,22H29V23H28zM10,23H11V24H10zM11,23H12V24H11zM13,23H14V24H13zM15,23H16V24H15zM18,23H19V24H18zM21,23H22V24H21zM22,23H23V24H22zM26,23H27V24H26zM28,23H29V24H28zM29,23H30V24H29zM30,23H31V24H30zM2,24H3V25H2zM3,24H4V25H3zM4,24H5V25H4zM5,24H6V25H5zM6,24H7V25H6zM7,24H8V25H7zM8,24H9V25H8zM12,24H13V25H12zM13,24H14V25H13zM14,24H15V25H14zM15,24H16V25H15zM16,24H17V25H16zM18,24H19V25H18zM20,24H21V25H20zM22,24H23V25H22zM24,24H25V25H24zM26,24H27V25H26zM29,24H30V25H29zM2,25H3V26H2zM8,25H9V26H8zM10,25H11V26H10zM11,25H12V26H11zM13,25H14V26H13zM15,25H16V26H15zM17,25H18V26H17zM20,25H21V26H20zM22,25H23V26H22zM26,25H27V26H26zM27,25H28V26H27zM28,25H29V26H28zM29,25H30V26H29zM2,26H3V27H2zM4,26H5V27H4zM5,26H6V27H5zM6,26H7V27H6zM8,26H9V27H8zM12,26H13V27H12zM13,26H14V27H13zM14,26H15V27H14zM16,26H17V27H16zM18,26H19V27H18zM19,26H20V27H19zM20,26H21V27H20zM22,26H23V27H22zM23,26H24V27H23zM24,26H25V27H24zM25,26H26V27H25zM26,26H27V27H26zM2,27H3V28H2zM4,27H5V28H4zM5,27H6V28H5zM6,27H7V28H6zM8,27H9V28H8zM10,27H11V28H10zM11,27H12V28H11zM12,27H13V28H12zM16,27H17V28H16zM21,27H22V28H21zM24,27H25V28H24zM25,27H26V28H25zM26,27H27V28H26zM27,27H28V28H27zM28,27H29V28H28zM29,27H30V28H29zM2,28H3V29H2zM4,28H5V29H4zM5,28H6V29H5zM6,28H7V29H6zM8,28H9V29H8zM11,28H12V29H11zM13,28H14V29H13zM19,28H20V29H19zM22,28H23V29H22zM26,28H27V29H26zM27,28H28V29H27zM28,28H29V29H28zM30,28H31V29H30zM2,29H3V30H2zM8,29H9V30H8zM11,29H12V30H11zM12,29H13V30H12zM13,29H14V30H13zM15,29H16V30H15zM16,29H17V30H16zM17,29H18V30H17zM18,29H19V30H18zM19,29H20V30H19zM20,29H21V30H20zM21,29H22V30H21zM22,29H23V30H22zM24,29H25V30H24zM25,29H26V30H25zM26,29H27V30H26zM29,29H30V30H29zM2,30H3V31H2zM3,30H4V31H3zM4,30H5V31H4zM5,30H6V31H5zM6,30H7V31H6zM7,30H8V31H7zM8,30H9V31H8zM10,30H11V31H10zM12,30H13V31H12zM14,30H15V31H14zM15,30H16V31H15zM17,30H18V31H17zM19,30H20V31H19zM22,30H23V31H22zM24,30H25V31H24zM25,30H26V31H25zM26,30H27V31H26zM29,30H30V31H29z" id="qr-path" fill="#000000" fill-opacity="1" fill-rule="nonzero" stroke="none"/></svg>